<svg width="24" height="24" viewBox="0 0 24 24" fill="none" xmlns="http://www.w3.org/2000/svg">
<path d="M6.75 19.5C6.33579 19.5 6 19.8358 6 20.25C6 20.6642 6.33579 21 6.75 21V19.5ZM17.25 21C17.6642 21 18 20.6642 18 20.25C18 19.8358 17.6642 19.5 17.25 19.5V21ZM12.75 3C12.75 2.58579 12.4142 2.25 12 2.25C11.5858 2.25 11.25 2.58579 11.25 3H12.75ZM11.4697 15.5303C11.7626 15.8232 12.2374 15.8232 12.5303 15.5303L17.3033 10.7574C17.5962 10.4645 17.5962 9.98959 17.3033 9.6967C17.0104 9.40381 16.5355 9.40381 16.2426 9.6967L12 13.9393L7.75736 9.6967C7.46447 9.40381 6.98959 9.40381 6.6967 9.6967C6.40381 9.98959 6.40381 10.4645 6.6967 10.7574L11.4697 15.5303ZM6.75 21H17.25V19.5H6.75V21ZM11.25 3V15H12.75V3H11.25Z" fill="white"/>
</svg>
