<svg width="24" height="24" viewBox="0 0 24 24" fill="none" xmlns="http://www.w3.org/2000/svg">
<path d="M6.75 19.5C6.33579 19.5 6 19.8358 6 20.25C6 20.6642 6.33579 21 6.75 21V19.5ZM17.25 21C17.6642 21 18 20.6642 18 20.25C18 19.8358 17.6642 19.5 17.25 19.5V21ZM11.25 15C11.25 15.4142 11.5858 15.75 12 15.75C12.4142 15.75 12.75 15.4142 12.75 15H11.25ZM12.5303 2.46967C12.2374 2.17678 11.7626 2.17678 11.4697 2.46967L6.6967 7.24264C6.40381 7.53553 6.40381 8.01041 6.6967 8.3033C6.98959 8.59619 7.46447 8.59619 7.75736 8.3033L12 4.06066L16.2426 8.3033C16.5355 8.59619 17.0104 8.59619 17.3033 8.3033C17.5962 8.01041 17.5962 7.53553 17.3033 7.24264L12.5303 2.46967ZM6.75 21H17.25V19.5H6.75V21ZM12.75 15V3H11.25V15H12.75Z" fill="white"/>
</svg>
