<svg width="24" height="24" viewBox="0 0 24 24" fill="none" xmlns="http://www.w3.org/2000/svg">
<path d="M3.59091 17C3.15152 17 2.77652 16.8434 2.46591 16.5302C2.1553 16.217 2 15.8389 2 15.3958C2 14.9528 2.1553 14.5747 2.46591 14.2615C2.77652 13.9483 3.15152 13.7917 3.59091 13.7917C3.66667 13.7917 3.74242 13.7955 3.81818 13.8031C3.89394 13.8108 3.99242 13.8299 4.11364 13.8604L8.65909 9.27708C8.62879 9.15486 8.60985 9.05556 8.60227 8.97917C8.5947 8.90278 8.59091 8.82639 8.59091 8.75C8.59091 8.30694 8.74621 7.92882 9.05682 7.61563C9.36742 7.30243 9.74242 7.14583 10.1818 7.14583C10.6212 7.14583 10.9962 7.30243 11.3068 7.61563C11.6174 7.92882 11.7727 8.30694 11.7727 8.75C11.7727 8.78056 11.75 8.95625 11.7045 9.27708L14.2045 11.7979C14.3258 11.7674 14.4242 11.7483 14.5 11.7406C14.5758 11.733 14.6515 11.7292 14.7273 11.7292C14.803 11.7292 14.8788 11.733 14.9545 11.7406C15.0303 11.7483 15.1288 11.7674 15.25 11.7979L18.8864 8.13125C18.8561 8.00903 18.8371 7.90972 18.8295 7.83333C18.822 7.75694 18.8182 7.68056 18.8182 7.60417C18.8182 7.16111 18.9735 6.78299 19.2841 6.46979C19.5947 6.1566 19.9697 6 20.4091 6C20.8485 6 21.2235 6.1566 21.5341 6.46979C21.8447 6.78299 22 7.16111 22 7.60417C22 8.04722 21.8447 8.42535 21.5341 8.73854C21.2235 9.05174 20.8485 9.20833 20.4091 9.20833C20.3333 9.20833 20.2576 9.20451 20.1818 9.19688C20.1061 9.18924 20.0076 9.17014 19.8864 9.13958L16.25 12.8063C16.2803 12.9285 16.2992 13.0278 16.3068 13.1042C16.3144 13.1806 16.3182 13.2569 16.3182 13.3333C16.3182 13.7764 16.1629 14.1545 15.8523 14.4677C15.5417 14.7809 15.1667 14.9375 14.7273 14.9375C14.2879 14.9375 13.9129 14.7809 13.6023 14.4677C13.2917 14.1545 13.1364 13.7764 13.1364 13.3333C13.1364 13.2569 13.1402 13.1806 13.1477 13.1042C13.1553 13.0278 13.1742 12.9285 13.2045 12.8063L10.7045 10.2854C10.5833 10.316 10.4848 10.3351 10.4091 10.3427C10.3333 10.3503 10.2576 10.3542 10.1818 10.3542C10.1515 10.3542 9.97727 10.3313 9.65909 10.2854L5.11364 14.8687C5.14394 14.991 5.16288 15.0903 5.17045 15.1667C5.17803 15.2431 5.18182 15.3194 5.18182 15.3958C5.18182 15.8389 5.02652 16.217 4.71591 16.5302C4.4053 16.8434 4.0303 17 3.59091 17Z" fill="white"/>
</svg>
