<svg id="vector" xmlns="http://www.w3.org/2000/svg" width="30.0d" height="36.0d" viewBox="0 0 30.0 36.0">
	<path fill="#00000000" d="M4.3356,15.0645C4.1173,14.7524 4.0002,14.3807 4.0002,13.9998C4.0002,13.6189 4.1173,13.2472 4.3356,12.9351C5.7513,10.9308 9.237,6.7998 13.8999,6.7998C18.5628,6.7998 22.0485,10.9308 23.4642,12.9351C23.6826,13.2472 23.7996,13.6189 23.7996,13.9998C23.7996,14.3807 23.6826,14.7524 23.4642,15.0645C22.0485,17.0688 18.5628,21.1998 13.8999,21.1998C9.237,21.1998 5.7513,17.0688 4.3356,15.0645Z" stroke="#ffffffff" stroke-width="1.5" stroke-linecap="round" stroke-linejoin="round" id="path_0" />
	<path fill="#00000000" d="M13.8996,17.5999C15.8878,17.5999 17.4996,15.9881 17.4996,13.9999C17.4996,12.0117 15.8878,10.3999 13.8996,10.3999C11.9113,10.3999 10.2996,12.0117 10.2996,13.9999C10.2996,15.9881 11.9113,17.5999 13.8996,17.5999Z" stroke="#ffffffff" stroke-width="1.5" stroke-linecap="round" stroke-linejoin="round" id="path_1" />
	<path fill="#00000000" d="M4.8999,23L22.8999,5" stroke="#ffffffff" stroke-width="1.5" stroke-linecap="round" stroke-linejoin="round" id="path_2" />
</svg>
