<svg id="vector" xmlns="http://www.w3.org/2000/svg" width="30.0d" height="30.0d" viewBox="0 0 30.0 30.0">
	<path fill="#00000000" d="M20.7845,13.6968V11.0878C20.7845,9.4732 20.1432,7.9247 19.0015,6.7831C17.8598,5.6414 16.3114,5 14.6968,5C13.0822,5 11.5338,5.6414 10.3921,6.7831C9.2504,7.9247 8.609,9.4732 8.609,11.0878V13.6968C8.609,16.5667 6,17.2625 6,18.9149C6,20.3933 9.3918,21.5239 14.6968,21.5239C20.0018,21.5239 23.3936,20.3933 23.3936,18.9149C23.3936,17.2625 20.7845,16.5667 20.7845,13.6968Z" stroke="#ffffffff" stroke-width="1.5" stroke-linecap="square" id="path_0" />
	<path fill="#ffffffff" d="M13.0688,23.7277C13.5914,23.7513 14.1337,23.7632 14.6968,23.7632C15.2599,23.7632 15.8022,23.7513 16.3248,23.7277C16.2134,23.864 16.0848,23.9866 15.9412,24.0921C15.5804,24.3571 15.1444,24.5 14.6968,24.5C14.2492,24.5 13.8132,24.3571 13.4524,24.0921C13.3088,23.9866 13.1802,23.864 13.0688,23.7277Z" stroke="#ffffffff" stroke-width="1.0" id="path_1" />
</svg>
