<svg id="vector" xmlns="http://www.w3.org/2000/svg" width="19.0d" height="19.0d" viewBox="0 0 30.0 30.0">
	<path fill="#00000000" d="M14.0144,22.5858C14.7954,23.3668 16.0617,23.3668 16.8428,22.5858L22.5858,16.8428C23.3668,16.0617 23.3668,14.7954 22.5858,14.0144L15.1572,6.5858C14.7821,6.2107 14.2734,6 13.743,6H9.3999C8.8694,6 8.3607,6.2107 7.9856,6.5858L6.5858,7.9856C6.2107,8.3607 6,8.8694 6,9.3999V13.743C6,14.2734 6.2107,14.7821 6.5858,15.1572L14.0144,22.5858Z" stroke="#ffffffff" stroke-width="1.5" stroke-linecap="square" id="path_0" />
	<path fill="#00000000" d="M11.1428,12.8572C12.0895,12.8572 12.857,12.0896 12.857,11.1429C12.857,10.1961 12.0895,9.4286 11.1428,9.4286C10.196,9.4286 9.4285,10.1961 9.4285,11.1429C9.4285,12.0896 10.196,12.8572 11.1428,12.8572Z" stroke="#ffffffff" stroke-width="1.5" stroke-linecap="square" id="path_1" />
</svg>
