<svg id="vector" xmlns="http://www.w3.org/2000/svg" width="24.0d" height="24.0d" viewBox="0 0 24.0 24.0">
	<path fill="#ffffffff" d="M2.375,7.8182H18.325L16.5375,9.5909C15.9875,10.1364 15.9875,10.9545 16.5375,11.5C16.8125,11.7727 17.0875,11.9091 17.5,11.9091C17.9125,11.9091 18.1875,11.7727 18.4625,11.5L22.5875,7.4091C23.1375,6.8636 23.1375,6.0455 22.5875,5.5L18.4625,1.4091C17.9125,0.8636 17.0875,0.8636 16.5375,1.4091C15.9875,1.9546 15.9875,2.7727 16.5375,3.3182L18.325,5.0909H2.375C1.55,5.0909 1,5.6364 1,6.4545C1,7.2727 1.55,7.8182 2.375,7.8182Z" id="path_0" />
	<path fill="#ffffffff" d="M21.625,16.1818H5.675L7.4625,14.4091C8.0125,13.8636 8.0125,13.0455 7.4625,12.5C6.9125,11.9545 6.0875,11.9545 5.5375,12.5L1.4125,16.5909C0.8625,17.1364 0.8625,17.9545 1.4125,18.5L5.5375,22.5909C5.8125,22.8636 6.0875,23 6.5,23C6.9125,23 7.1875,22.8636 7.4625,22.5909C8.0125,22.0455 8.0125,21.2273 7.4625,20.6818L5.675,18.9091H21.625C22.45,18.9091 23,18.3636 23,17.5455C23,16.7273 22.45,16.1818 21.625,16.1818Z" id="path_1" />
</svg>
