<svg id="vector" xmlns="http://www.w3.org/2000/svg" width="23.0d" height="22.0d" viewBox="0 0 23.0 22.0">
	<path fill="#ffffff" d="M11.5,9.79C10.829,9.79 10.29,10.329 10.29,11C10.29,11.671 10.829,12.21 11.5,12.21C12.171,12.21 12.71,11.671 12.71,11C12.71,10.329 12.171,9.79 11.5,9.79ZM11.5,0C5.428,0 0.5,4.928 0.5,11C0.5,17.072 5.428,22 11.5,22C17.572,22 22.5,17.072 22.5,11C22.5,4.928 17.572,0 11.5,0ZM14.063,13.0781C13.9635,13.2918 13.7918,13.4635 13.5781,13.563L7.3841,16.4444C6.5384,16.8378 5.6622,15.9616 6.0556,15.1159L8.937,8.9219C9.0365,8.7082 9.2082,8.5365 9.4219,8.437L15.6159,5.5556C16.4616,5.1622 17.3378,6.0384 16.9444,6.8841L14.063,13.0781Z" id="path_0" />
</svg>
