<svg id="vector" xmlns="http://www.w3.org/2000/svg" width="24.0d" height="24.0d" viewBox="0 0 24.0 24.0">
	<path fill="#ffffffff" d="M8.5334,1H3C1.8954,1 1,1.8954 1,3V8.429C1,9.5335 1.8954,10.4289 3,10.4289H8.5334C9.638,10.4289 10.5334,9.5335 10.5334,8.429V3C10.5334,1.8954 9.638,1 8.5334,1Z" id="path_0" />
	<path fill="#ffffffff" d="M21,1H15.4666C14.362,1 13.4666,1.8954 13.4666,3V8.429C13.4666,9.5335 14.362,10.4289 15.4666,10.4289H21C22.1046,10.4289 23,9.5335 23,8.429V3C23,1.8954 22.1046,1 21,1Z" id="path_1" />
	<path fill="#ffffffff" d="M8.5334,13.571H3C1.8954,13.571 1,14.4665 1,15.571V21C1,22.1046 1.8954,23 3,23H8.5334C9.638,23 10.5334,22.1046 10.5334,21V15.571C10.5334,14.4665 9.638,13.571 8.5334,13.571Z" id="path_2" />
	<path fill="#ffffffff" d="M21,13.571H15.4666C14.362,13.571 13.4666,14.4665 13.4666,15.571V21C13.4666,22.1046 14.362,23 15.4666,23H21C22.1046,23 23,22.1046 23,21V15.571C23,14.4665 22.1046,13.571 21,13.571Z" id="path_3" />
</svg>
