<svg id="vector" xmlns="http://www.w3.org/2000/svg" width="18.0d" height="18.0d" viewBox="0 0 18.0 18.0">
	<path fill="#ffffffff" d="M9.5,10C10.3284,10 11,9.3284 11,8.5C11,7.6716 10.3284,7 9.5,7C8.6716,7 8,7.6716 8,8.5C8,9.3284 8.6716,10 9.5,10Z" id="path_0" />
	<path fill="#ffffffff" d="M2.5,10C3.3284,10 4,9.3284 4,8.5C4,7.6716 3.3284,7 2.5,7C1.6716,7 1,7.6716 1,8.5C1,9.3284 1.6716,10 2.5,10Z" id="path_1" />
	<path fill="#ffffffff" d="M16.5,10C17.3284,10 18,9.3284 18,8.5C18,7.6716 17.3284,7 16.5,7C15.6716,7 15,7.6716 15,8.5C15,9.3284 15.6716,10 16.5,10Z" id="path_2" />
</svg>
