<svg id="vector" xmlns="http://www.w3.org/2000/svg" width="28.0d" height="28.0d" viewBox="0 0 28.0 28.0">
	<path fill="#ffff5f52" d="M21.8537,0H6.1463C2.7518,0 0,2.7518 0,6.1463V21.8537C0,25.2482 2.7518,28 6.1463,28H21.8537C25.2482,28 28,25.2482 28,21.8537V6.1463C28,2.7518 25.2482,0 21.8537,0Z" id="path_0" />
	<path fill="#ffffff" d="M14.1711,23.9024C19.5457,23.9024 23.9028,19.5454 23.9028,14.1707C23.9028,8.7961 19.5457,4.439 14.1711,4.439C8.7964,4.439 4.4394,8.7961 4.4394,14.1707C4.4394,19.5454 8.7964,23.9024 14.1711,23.9024Z" stroke="#ffffffff" stroke-width="0.449899" id="path_1" />
	<path fill="#ffffff" d="M13.581,8.5366V9.3103C12.7813,9.4398 12.1454,9.8153 11.7194,10.2493C11.1932,10.7855 10.9269,11.3811 10.9269,11.9019C10.9269,12.6632 11.4078,13.2756 11.9682,13.6973C12.9453,14.4347 14.3264,14.6033 15.3412,15.1772C15.8907,15.4933 16.2351,15.8522 16.2351,16.2288C16.2351,16.4291 16.0591,16.9152 15.7006,17.2805C15.3421,17.6458 14.8589,17.9115 14.1708,17.9115C13.7284,17.9115 13.2376,17.7657 12.8437,17.5435C12.4499,17.3211 12.1703,17.0159 12.0788,16.7922C11.98,16.5523 11.6221,16.4073 11.3277,16.4879C11.0333,16.5686 10.8555,16.8603 10.9545,17.1002C11.1579,17.5976 11.6156,18.0136 12.1802,18.3322C12.5912,18.5641 13.0676,18.7467 13.581,18.828V19.5942H14.7606V18.8204C15.5603,18.691 16.1962,18.3155 16.6221,17.8815C17.1484,17.3453 17.4147,16.7497 17.4147,16.2288C17.4147,15.4035 16.7269,14.7933 16.0231,14.3884C15.0232,13.771 13.6378,13.6371 12.7608,12.9912C12.3628,12.6917 12.1065,12.3426 12.1065,11.9019C12.1065,11.7016 12.2825,11.2155 12.641,10.8503C12.9995,10.485 13.4827,10.2193 14.1708,10.2193C14.6131,10.2193 15.104,10.3576 15.4978,10.5798C15.8917,10.8021 16.1712,11.1073 16.2627,11.331C16.3616,11.571 16.7195,11.716 17.0138,11.6354C17.3082,11.5547 17.486,11.263 17.387,11.0231C17.1836,10.5256 16.7259,10.1096 16.1614,9.7911C15.7505,9.5592 15.2738,9.3819 14.7606,9.3028V8.5366H13.581Z" stroke="#ffff5f52" stroke-width="0.449899" id="path_2" />
</svg>
