<svg id="vector" xmlns="http://www.w3.org/2000/svg" width="24.0d" height="24.0d" viewBox="0 0 30.0 26.0">
	<path fill="#00000000" d="M14.0144,20.5858C14.7954,21.3668 16.0617,21.3668 16.8428,20.5858L22.5858,14.8428C23.3668,14.0617 23.3668,12.7954 22.5858,12.0144L15.1572,4.5858C14.7821,4.2107 14.2734,4 13.743,4H9.3999C8.8694,4 8.3607,4.2107 7.9856,4.5858L6.5858,5.9856C6.2107,6.3607 6,6.8694 6,7.3999V11.743C6,12.2734 6.2107,12.7821 6.5858,13.1572L14.0144,20.5858Z" stroke="#ffffff" stroke-width="1.5" stroke-linecap="square" id="path_0" />
	<path fill="#00000000" d="M11.1428,10.8571C12.0895,10.8571 12.857,10.0896 12.857,9.1429C12.857,8.1961 12.0895,7.4286 11.1428,7.4286C10.196,7.4286 9.4285,8.1961 9.4285,9.1429C9.4285,10.0896 10.196,10.8571 11.1428,10.8571Z" stroke="#ffffff" stroke-width="1.5" stroke-linecap="square" id="path_1" />
</svg>
