<svg id="vector" xmlns="http://www.w3.org/2000/svg" width="16.0d" height="16.0d" viewBox="0 0 16.0 16.0"><path fill="#ff313848" d="M14.1334,1.2259L8.1334,0.0259C8.0471,0.0086 7.9583,0.0086 7.872,0.0259L1.872,1.2259C1.7204,1.2555 1.5837,1.337 1.4855,1.4563C1.3872,1.5756 1.3334,1.7253 1.3334,1.8799V8.6665C1.3334,13.9999 8,15.9999 8,15.9999C8,15.9999 14.6667,13.9999 14.6667,8.6665V1.8799C14.6669,1.7261 14.6139,1.5769 14.5167,1.4577C14.4195,1.3385 14.2841,1.2566 14.1334,1.2259ZM7.3714,10.9805L4.3907,7.9999L5.3334,7.0572L7.2954,9.0192L11.2614,4.3932L12.2734,5.2599L7.3714,10.9805Z" id="path_0"/></svg>