<svg id="vector" xmlns="http://www.w3.org/2000/svg" width="30.0d" height="30.0d" viewBox="0 0 30.0 30.0"><path fill="#00000000" d="M5,7.7275V11.3639C5,12.8703 7.4418,14.0912 10.4546,14.0912C13.4673,14.0912 15.9092,12.8703 15.9092,11.3639V7.7275" stroke="#ffffffff" stroke-width="1.5" stroke-linecap="round" stroke-linejoin="round" id="path_0"/><path fill="#00000000" d="M5,11.3638V15.0002C5,16.5065 7.4418,17.7274 10.4546,17.7274C11.8519,17.7274 13.1255,17.4638 14.091,17.032" stroke="#ffffffff" stroke-width="1.5" stroke-linecap="round" stroke-linejoin="round" id="path_1"/><path fill="#00000000" d="M5,15V18.6364C5,20.1428 7.4418,21.3637 10.4546,21.3637C11.8519,21.3637 13.1264,21.1009 14.091,20.6691" stroke="#ffffffff" stroke-width="1.5" stroke-linecap="round" stroke-linejoin="round" id="path_2"/><path fill="#00000000" d="M10.4546,10.4546C13.4671,10.4546 15.9092,9.2335 15.9092,7.7273C15.9092,6.221 13.4671,5 10.4546,5C7.4421,5 5,6.221 5,7.7273C5,9.2335 7.4421,10.4546 10.4546,10.4546Z" stroke="#ffffffff" stroke-width="1.5" stroke-linecap="round" stroke-linejoin="round" id="path_3"/><path fill="#00000000" d="M14.0908,15V18.6364C14.0908,20.1428 16.5327,21.3637 19.5454,21.3637C22.5581,21.3637 25,20.1428 25,18.6364V15" stroke="#ffffffff" stroke-width="1.5" stroke-linecap="round" stroke-linejoin="round" id="path_4"/><path fill="#00000000" d="M14.0908,18.6365V22.2729C14.0908,23.7792 16.5327,25.0001 19.5454,25.0001C22.5581,25.0001 25,23.7792 25,22.2729V18.6365" stroke="#ffffffff" stroke-width="1.5" stroke-linecap="round" stroke-linejoin="round" id="path_5"/><path fill="#00000000" d="M19.5454,17.7273C22.5579,17.7273 25,16.5062 25,15C25,13.4938 22.5579,12.2727 19.5454,12.2727C16.5329,12.2727 14.0908,13.4938 14.0908,15C14.0908,16.5062 16.5329,17.7273 19.5454,17.7273Z" stroke="#ffffffff" stroke-width="1.5" stroke-linecap="round" stroke-linejoin="round" id="path_6"/></svg>