<svg id="vector" xmlns="http://www.w3.org/2000/svg" width="24.0d" height="24.0d" viewBox="0 0 28.0 28.0">
	<path fill="#ff3375bb" d="M21.8537,0H6.1463C2.7518,0 0,2.7518 0,6.1463V21.8537C0,25.2482 2.7518,28 6.1463,28H21.8537C25.2482,28 28,25.2482 28,21.8537V6.1463C28,2.7518 25.2482,0 21.8537,0Z" id="path_0" />
	<path fill="#ffffffff" d="M21,13H15V7C15,6.4 14.6,6 14,6C13.4,6 13,6.4 13,7V13H7C6.4,13 6,13.4 6,14C6,14.6 6.4,15 7,15H13V21C13,21.6 13.4,22 14,22C14.6,22 15,21.6 15,21V15H21C21.6,15 22,14.6 22,14C22,13.4 21.6,13 21,13Z" id="path_1" />
</svg>
