<svg id="vector" xmlns="http://www.w3.org/2000/svg" width="24.0d" height="24.0d" viewBox="0 0 82.0 82.0">
	<path fill="#ff32bea6" d="M64,0H18C8.0589,0 0,8.0589 0,18V64C0,73.9411 8.0589,82 18,82H64C73.9411,82 82,73.9411 82,64V18C82,8.0589 73.9411,0 64,0Z" id="path_0" />
	<path fill="#ffffffff" d="M41.0079,54.2372C33.7222,54.2372 27.8103,48.3241 27.8103,41.0396C27.8103,33.7539 33.7222,27.8408 41.0079,27.8408C48.2924,27.8408 54.1897,33.7539 54.1897,41.0396C54.1897,48.3399 48.2924,54.2372 41.0079,54.2372ZM66,44.0187V37.9972L60.2903,36.2032C59.8068,34.2678 59.0419,32.4434 58.0286,30.7736L60.8055,25.4536L56.5464,21.1957L51.2106,23.9714C49.5578,22.9739 47.7468,22.2249 45.8127,21.7414L44.0028,16H37.9655L36.1569,21.7414C34.2374,22.2249 32.4117,22.9739 30.7578,23.9714L25.4695,21.1957L21.1957,25.4695L23.9726,30.7894C22.9739,32.4592 22.1944,34.2679 21.7097,36.219L16,38.013V44.0345L21.6792,45.8285C22.1628,47.7784 22.9264,49.6187 23.941,51.3044L21.1957,56.5464L25.4536,60.8055L30.7115,58.059C32.3971,59.0736 34.2532,59.8531 36.219,60.3366L37.9972,65.9842H44.0345L45.8127,60.3366C47.7784,59.8531 49.6187,59.0736 51.3202,58.059L56.5768,60.8055L60.8359,56.5464L58.0895,51.2727C59.104,49.5883 59.8689,47.7468 60.3524,45.7968L66,44.0187Z" fill-rule="evenodd" id="path_1" />
</svg>
