<svg id="vector" xmlns="http://www.w3.org/2000/svg" width="200.0d" height="200.0d" viewBox="0 0 200.0 200.0"><path fill="@drawable/$ic_stop_consent__0" d="M100,100m-100,0a100,100 0,1 1,200 0a100,100 0,1 1,-200 0" id="path_0"/><path fill="@drawable/$ic_stop_consent__1" d="M96,150L104,150A4,4 0,0 1,108 154L108,193A4,4 0,0 1,104 197L96,197A4,4 0,0 1,92 193L92,154A4,4 0,0 1,96 150z" id="path_1"/><path fill="@drawable/$ic_stop_consent__2" d="M96,150L104,150A4,4 0,0 1,108 154L108,193A4,4 0,0 1,104 197L96,197A4,4 0,0 1,92 193L92,154A4,4 0,0 1,96 150z" id="path_2"/><path fill="@drawable/$ic_stop_consent__3" d="M100,100m-58,0a58,58 0,1 1,116 0a58,58 0,1 1,-116 0" id="path_3"/><path fill="@drawable/$ic_stop_consent__4" d="M71.959,118C69.339,118 67.357,117.25 66.014,115.75C64.671,114.217 64,112.033 64,109.2V108.2C64,107.648 64.448,107.2 65,107.2H68.109C68.662,107.2 69.109,107.648 69.109,108.2V109.6C69.109,111.867 70.043,113 71.91,113C72.827,113 73.515,112.733 73.973,112.2C74.465,111.633 74.71,110.733 74.71,109.5C74.71,108.033 74.383,106.75 73.728,105.65C73.073,104.517 71.861,103.167 70.092,101.6C67.865,99.6 66.309,97.8 65.425,96.2C64.54,94.567 64.098,92.733 64.098,90.7C64.098,87.933 64.786,85.8 66.162,84.3C67.537,82.767 69.535,82 72.156,82C74.743,82 76.692,82.767 78.002,84.3C79.345,85.8 80.016,87.967 80.016,90.8V91.25C80.016,91.802 79.568,92.25 79.016,92.25H75.907C75.354,92.25 74.907,91.802 74.907,91.25V90.45C74.907,89.25 74.677,88.383 74.219,87.85C73.76,87.283 73.089,87 72.205,87C70.403,87 69.503,88.117 69.503,90.35C69.503,91.617 69.83,92.8 70.485,93.9C71.173,95 72.401,96.333 74.17,97.9C76.43,99.9 77.986,101.717 78.837,103.35C79.689,104.983 80.115,106.9 80.115,109.1C80.115,111.967 79.41,114.167 78.002,115.7C76.626,117.233 74.612,118 71.959,118Z" id="path_4"/><path fill="@drawable/$ic_stop_consent__5" d="M87.237,88.5C87.237,87.948 86.789,87.5 86.237,87.5H82.587C82.035,87.5 81.587,87.052 81.587,86.5V83.5C81.587,82.948 82.035,82.5 82.587,82.5H97.291C97.843,82.5 98.291,82.948 98.291,83.5V86.5C98.291,87.052 97.843,87.5 97.291,87.5H93.641C93.089,87.5 92.641,87.948 92.641,88.5V116.5C92.641,117.052 92.193,117.5 91.641,117.5H88.237C87.685,117.5 87.237,117.052 87.237,116.5V88.5Z" id="path_5"/><path fill="@drawable/$ic_stop_consent__6" d="M108.326,118C105.673,118 103.642,117.233 102.234,115.7C100.825,114.167 100.121,112 100.121,109.2V90.8C100.121,88 100.825,85.833 102.234,84.3C103.642,82.767 105.673,82 108.326,82C110.979,82 113.009,82.767 114.418,84.3C115.826,85.833 116.53,88 116.53,90.8V109.2C116.53,112 115.826,114.167 114.418,115.7C113.009,117.233 110.979,118 108.326,118ZM108.326,113C110.193,113 111.126,111.85 111.126,109.55V90.45C111.126,88.15 110.193,87 108.326,87C106.459,87 105.525,88.15 105.525,90.45V109.55C105.525,111.85 106.459,113 108.326,113Z" id="path_6"/><path fill="@drawable/$ic_stop_consent__7" d="M119.984,83.5C119.984,82.948 120.431,82.5 120.984,82.5H127.943C130.629,82.5 132.643,83.233 133.986,84.7C135.329,86.167 136,88.317 136,91.15V94.6C136,97.433 135.329,99.583 133.986,101.05C132.643,102.517 130.629,103.25 127.943,103.25H126.388C125.836,103.25 125.388,103.698 125.388,104.25V116.5C125.388,117.052 124.94,117.5 124.388,117.5H120.984C120.431,117.5 119.984,117.052 119.984,116.5V83.5ZM127.943,98.25C128.827,98.25 129.482,98 129.908,97.5C130.366,97 130.596,96.15 130.596,94.95V90.8C130.596,89.6 130.366,88.75 129.908,88.25C129.482,87.75 128.827,87.5 127.943,87.5H126.388C125.836,87.5 125.388,87.948 125.388,88.5V97.25C125.388,97.802 125.836,98.25 126.388,98.25H127.943Z" id="path_7"/></svg>