<svg id="vector" xmlns="http://www.w3.org/2000/svg" width="24.0d" height="24.0d" viewBox="0 0 24.0 24.0">
	<path fill="#ffffff" d="M23,12.6196C23,13.1084 22.6466,13.5256 22.1645,13.606L20.4499,13.8919C20.0591,13.957 19.7491,14.2486 19.6204,14.6232C19.5131,14.9358 19.3872,15.2394 19.2439,15.5331C19.0702,15.8892 19.0829,16.3148 19.313,16.6374L20.323,18.0531C20.6067,18.4508 20.5615,18.9954 20.216,19.3409L19.3398,20.2171C18.9942,20.5628 18.4492,20.6079 18.0515,20.3237L16.6375,19.3136C16.3149,19.0832 15.889,19.0703 15.5327,19.2441C15.2391,19.3874 14.9356,19.5131 14.6232,19.6204C14.2486,19.7491 13.957,20.0591 13.8919,20.4499L13.606,22.1645C13.5256,22.6466 13.1084,23 12.6196,23H11.3804C10.8916,23 10.4744,22.6466 10.394,22.1645L10.1081,20.4499C10.043,20.0591 9.7514,19.7491 9.3768,19.6204C9.0643,19.5131 8.7607,19.3873 8.467,19.244C8.1109,19.0702 7.6852,19.083 7.3626,19.3133L5.9485,20.3227C5.5507,20.6066 5.006,20.5614 4.6604,20.2158L3.7841,19.3396C3.4386,18.994 3.3934,18.4493 3.6773,18.0515L4.6867,16.6374C4.917,16.3148 4.9298,15.8891 4.756,15.533C4.6127,15.2393 4.4869,14.9357 4.3796,14.6232C4.2509,14.2486 3.9409,13.957 3.5501,13.8919L1.8355,13.606C1.3534,13.5256 1,13.1084 1,12.6196V11.3804C1,10.8916 1.3534,10.4744 1.8355,10.394L3.5501,10.1081C3.9409,10.043 4.2509,9.7514 4.3796,9.3768C4.4869,9.0643 4.6127,8.7607 4.756,8.467C4.9298,8.1109 4.917,7.6852 4.6867,7.3626L3.6773,5.9485C3.3934,5.5507 3.4386,5.006 3.7841,4.6604L4.6604,3.7841C5.006,3.4386 5.5507,3.3934 5.9485,3.6773L7.3626,4.6867C7.6852,4.917 8.1109,4.9298 8.467,4.756C8.7607,4.6127 9.0643,4.4869 9.3768,4.3796C9.7514,4.2509 10.043,3.9409 10.1081,3.5501L10.394,1.8355C10.4744,1.3534 10.8916,1 11.3804,1H12.6196C13.1084,1 13.5256,1.3534 13.606,1.8355L13.8919,3.5501C13.957,3.9409 14.2486,4.2509 14.6232,4.3796C14.9357,4.4869 15.2393,4.6127 15.533,4.756C15.8891,4.9298 16.3148,4.917 16.6374,4.6867L18.0518,3.6772C18.4494,3.3933 18.994,3.4384 19.3396,3.7837L20.2167,4.6602C20.5626,5.0058 20.6078,5.5509 20.3235,5.9488L19.3136,7.3625C19.0832,7.6851 19.0703,8.111 19.2441,8.4673C19.3874,8.7609 19.5131,9.0644 19.6204,9.3768C19.7491,9.7514 20.0591,10.043 20.4499,10.1081L22.1645,10.394C22.6466,10.4744 23,10.8916 23,11.3804V12.6196ZM15.6666,12C15.6666,14.0251 14.025,15.6667 12,15.6667C9.9749,15.6667 8.3333,14.0251 8.3333,12C8.3333,9.975 9.9749,8.3334 12,8.3334C14.025,8.3334 15.6666,9.975 15.6666,12Z"  id="path_0" />
</svg>
