<svg id="vector" xmlns="http://www.w3.org/2000/svg" width="82.0d" height="82.0d" viewBox="0 0 82.0 82.0">
	<path fill="#ffffc000" d="M18,0L64,0A18,18 0,0 1,82 18L82,64A18,18 0,0 1,64 82L18,82A18,18 0,0 1,0 64L0,18A18,18 0,0 1,18 0z" stroke="#00000000" stroke-width="1.0" fill-rule="evenodd" id="path_0" />
	<path fill="#ffffffff" d="M63.8749,26.5007L58.7856,26.5007C59.2979,25.5003 59.5842,24.402 59.625,23.2816C59.5513,21.3009 58.6933,19.4281 57.2359,18.0664C55.7784,16.7048 53.8379,15.9632 51.8327,16.0014C49.444,16.1031 47.1281,16.8438 45.1322,18.1445C43.1362,19.4452 41.5353,21.257 40.5,23.3866C39.4758,21.263 37.887,19.4542 35.9033,18.1534C33.9197,16.8527 31.6157,16.1088 29.2375,16.0014C29.1567,16.0014 29.076,16.0014 28.9953,16.0014C27.0186,16.0045 25.1201,16.7649 23.699,18.1226C22.2779,19.4803 21.4448,21.3296 21.375,23.2816L21.375,23.4202C21.4164,24.4923 21.6912,25.5429 22.1804,26.5007L17.125,26.5007C16.5614,26.5007 16.0209,26.722 15.6224,27.1158C15.2239,27.5095 15,28.0436 15,28.6006L15,34.9002C15,35.4571 15.2239,35.9912 15.6224,36.385C16.0209,36.7788 16.5614,37 17.125,37L63.8749,37C64.4385,37 64.9791,36.7788 65.3776,36.385C65.7761,35.9912 66,35.4571 66,34.9002L66,28.6006C66,28.0436 65.7761,27.5095 65.3776,27.1158C64.9791,26.722 64.4385,26.5007 63.8749,26.5007ZM51.8985,20.2011C52.7664,20.1789 53.61,20.4856 54.2566,21.0584C54.9029,21.6312 55.3032,22.4266 55.3751,23.2816C55.3449,24.1411 54.9798,24.9559 54.3562,25.5558C53.7324,26.1556 52.8983,26.4942 52.0281,26.5007L43.6407,26.5007C44.9625,23.857 47.5911,20.2011 51.8985,20.2011ZM25.625,23.3509C25.6794,22.4916 26.0656,21.6858 26.7038,21.0997C27.342,20.5136 28.1835,20.1919 29.0547,20.2011C33.4514,20.2179 36.0269,23.836 37.3635,26.5007L29.076,26.5007C28.2035,26.5072 27.3611,26.1852 26.7202,25.6002C26.0792,25.0152 25.6876,24.2109 25.625,23.3509Z" stroke="#00000000" stroke-width="1.0" fill-rule="nonzero" id="path_1" />
	<path fill="#ffffffff" d="M45,41L45,67L55.625,67C57.3159,67 58.9374,66.3153 60.1329,65.0961C61.3284,63.8772 62,62.2238 62,60.5L62,41L45,41Z" stroke="#00000000" stroke-width="1.0" fill-rule="nonzero" id="path_2" />
	<path fill="#ffffffff" d="M36,41L19,41L19,60.5C19,62.2238 19.6716,63.8772 20.8672,65.0961C22.0627,66.3153 23.6843,67 25.375,67L36,67L36,41Z" stroke="#00000000" stroke-width="1.0" fill-rule="nonzero" id="path_3" />
</svg>
