<svg id="vector" xmlns="http://www.w3.org/2000/svg" width="70.0d" height="64.02438d" viewBox="0 0 164.0 150.0"><path fill="#00000000" d="M82.772,5.111C97.654,17.539 114.719,16.773 119.595,16.773C118.528,87.457 110.402,73.44 82.772,93.26C55.142,73.44 47.067,87.457 46,16.773C50.825,16.773 67.891,17.539 82.772,5.111Z" stroke="#ff3375bb" stroke-width="9.0" stroke-linecap="round" stroke-linejoin="round" id="path_0"/><path fill="#ff3375bb" d="M8.511,127.096H2.239V123.4H19.319V127.096H13.047V143H8.511V127.096ZM23.615,129.924C24.138,129.196 24.838,128.645 25.715,128.272C26.611,127.899 27.638,127.712 28.795,127.712V131.744C28.31,131.707 27.983,131.688 27.815,131.688C26.565,131.688 25.584,132.043 24.875,132.752C24.166,133.443 23.811,134.488 23.811,135.888V143H19.443V127.936H23.615V129.924ZM44.998,127.936V143H40.854V141.208C40.275,141.861 39.584,142.365 38.782,142.72C37.979,143.056 37.111,143.224 36.178,143.224C34.199,143.224 32.631,142.655 31.474,141.516C30.316,140.377 29.738,138.688 29.738,136.448V127.936H34.106V135.804C34.106,138.231 35.123,139.444 37.158,139.444C38.203,139.444 39.043,139.108 39.678,138.436C40.312,137.745 40.63,136.728 40.63,135.384V127.936H44.998ZM52.432,143.224C51.182,143.224 49.959,143.075 48.764,142.776C47.57,142.459 46.618,142.067 45.908,141.6L47.364,138.464C48.036,138.893 48.848,139.248 49.8,139.528C50.752,139.789 51.686,139.92 52.6,139.92C54.448,139.92 55.372,139.463 55.372,138.548C55.372,138.119 55.12,137.811 54.616,137.624C54.112,137.437 53.338,137.279 52.292,137.148C51.06,136.961 50.043,136.747 49.24,136.504C48.438,136.261 47.738,135.832 47.14,135.216C46.562,134.6 46.272,133.723 46.272,132.584C46.272,131.632 46.543,130.792 47.084,130.064C47.644,129.317 48.447,128.739 49.492,128.328C50.556,127.917 51.807,127.712 53.244,127.712C54.308,127.712 55.363,127.833 56.408,128.076C57.472,128.3 58.35,128.617 59.04,129.028L57.584,132.136C56.259,131.389 54.812,131.016 53.244,131.016C52.311,131.016 51.611,131.147 51.144,131.408C50.678,131.669 50.444,132.005 50.444,132.416C50.444,132.883 50.696,133.209 51.2,133.396C51.704,133.583 52.507,133.76 53.608,133.928C54.84,134.133 55.848,134.357 56.632,134.6C57.416,134.824 58.098,135.244 58.676,135.86C59.255,136.476 59.544,137.335 59.544,138.436C59.544,139.369 59.264,140.2 58.704,140.928C58.144,141.656 57.323,142.225 56.24,142.636C55.176,143.028 53.907,143.224 52.432,143.224ZM70.275,142.272C69.846,142.589 69.314,142.832 68.679,143C68.063,143.149 67.41,143.224 66.719,143.224C64.927,143.224 63.537,142.767 62.547,141.852C61.577,140.937 61.091,139.593 61.091,137.82V131.632H58.767V128.272H61.091V124.604H65.459V128.272H69.211V131.632H65.459V137.764C65.459,138.399 65.618,138.893 65.935,139.248C66.271,139.584 66.738,139.752 67.335,139.752C68.026,139.752 68.614,139.565 69.099,139.192L70.275,142.272ZM107.229,123.4L100.817,143H95.945L91.633,129.728L87.181,143H82.337L75.897,123.4H80.601L85.025,137.176L89.645,123.4H93.845L98.325,137.288L102.889,123.4H107.229ZM112.728,127.712C115.062,127.712 116.854,128.272 118.104,129.392C119.355,130.493 119.98,132.164 119.98,134.404V143H115.892V141.124C115.071,142.524 113.54,143.224 111.3,143.224C110.143,143.224 109.135,143.028 108.276,142.636C107.436,142.244 106.792,141.703 106.344,141.012C105.896,140.321 105.672,139.537 105.672,138.66C105.672,137.26 106.195,136.159 107.24,135.356C108.304,134.553 109.938,134.152 112.14,134.152H115.612C115.612,133.2 115.323,132.472 114.744,131.968C114.166,131.445 113.298,131.184 112.14,131.184C111.338,131.184 110.544,131.315 109.76,131.576C108.995,131.819 108.342,132.155 107.8,132.584L106.232,129.532C107.054,128.953 108.034,128.505 109.172,128.188C110.33,127.871 111.515,127.712 112.728,127.712ZM112.392,140.284C113.139,140.284 113.802,140.116 114.38,139.78C114.959,139.425 115.37,138.912 115.612,138.24V136.7H112.616C110.824,136.7 109.928,137.288 109.928,138.464C109.928,139.024 110.143,139.472 110.572,139.808C111.02,140.125 111.627,140.284 112.392,140.284ZM122.253,122.224H126.621V143H122.253V122.224ZM128.995,122.224H133.363V143H128.995V122.224ZM150.493,135.524C150.493,135.58 150.465,135.972 150.409,136.7H139.013C139.219,137.633 139.704,138.371 140.469,138.912C141.235,139.453 142.187,139.724 143.325,139.724C144.109,139.724 144.8,139.612 145.397,139.388C146.013,139.145 146.583,138.772 147.105,138.268L149.429,140.788C148.011,142.412 145.939,143.224 143.213,143.224C141.515,143.224 140.012,142.897 138.705,142.244C137.399,141.572 136.391,140.648 135.681,139.472C134.972,138.296 134.617,136.961 134.617,135.468C134.617,133.993 134.963,132.668 135.653,131.492C136.363,130.297 137.324,129.373 138.537,128.72C139.769,128.048 141.141,127.712 142.653,127.712C144.128,127.712 145.463,128.029 146.657,128.664C147.852,129.299 148.785,130.213 149.457,131.408C150.148,132.584 150.493,133.956 150.493,135.524ZM142.681,131.016C141.692,131.016 140.861,131.296 140.189,131.856C139.517,132.416 139.107,133.181 138.957,134.152H146.377C146.228,133.2 145.817,132.444 145.145,131.884C144.473,131.305 143.652,131.016 142.681,131.016ZM161.437,142.272C161.008,142.589 160.476,142.832 159.841,143C159.225,143.149 158.572,143.224 157.881,143.224C156.089,143.224 154.699,142.767 153.709,141.852C152.739,140.937 152.253,139.593 152.253,137.82V131.632H149.929V128.272H152.253V124.604H156.621V128.272H160.373V131.632H156.621V137.764C156.621,138.399 156.78,138.893 157.097,139.248C157.433,139.584 157.9,139.752 158.497,139.752C159.188,139.752 159.776,139.565 160.261,139.192L161.437,142.272Z" id="path_1"/></svg>