<svg id="vector" xmlns="http://www.w3.org/2000/svg" width="28.0d" height="28.0d" viewBox="0 0 28.0 28.0">
	<path fill="#ffffff" d="M21.8537,0H6.1463C2.7518,0 0,2.7518 0,6.1463V21.8537C0,25.2482 2.7518,28 6.1463,28H21.8537C25.2482,28 28,25.2482 28,21.8537V6.1463C28,2.7518 25.2482,0 21.8537,0Z" id="path_0" />
	<path fill="#000000" d="M14,6C11.794,6 10,7.794 10,10V11C10,13.206 11.794,15 14,15C16.206,15 18,13.206 18,11V10C18,7.794 16.206,6 14,6Z" id="path_1" />
	<path fill="#000000" d="M18.036,15.426C16.969,16.4 15.555,17 14,17C12.445,17 11.031,16.4 9.964,15.426C8.203,16 7,17.311 7,19V22H21V19C21,17.311 19.797,16 18.036,15.426Z" id="path_2" />
</svg>
