<svg id="vector" xmlns="http://www.w3.org/2000/svg" width="28.0d" height="28.0d" viewBox="0 0 28.0 28.0">
	<path fill="#ff1c1f23" d="M21.8537,0H6.1463C2.7518,0 0,2.7518 0,6.1463V21.8537C0,25.2482 2.7518,28 6.1463,28H21.8537C25.2482,28 28,25.2482 28,21.8537V6.1463C28,2.7518 25.2482,0 21.8537,0Z" id="path_0" />
	<path fill="#ffffffff" d="M20.3,16.025C19.7,16.175 19.1,16.25 18.5,16.25C14.75,16.25 11.75,13.25 11.75,9.5C11.75,8.9 11.825,8.3 11.975,7.7C12.05,7.475 11.975,7.175 11.75,6.95C11.525,6.725 11.3,6.65 11,6.725C7.475,7.775 5,11.075 5,14.75C5,19.325 8.675,23 13.25,23C16.925,23 20.225,20.525 21.2,16.925C21.275,16.7 21.2,16.4 20.975,16.175C20.825,16.025 20.525,15.95 20.3,16.025Z" id="path_1" />
	<path fill="#ffffffff" d="M14.75,8H15.5V8.75C15.5,9.2 15.8,9.5 16.25,9.5C16.7,9.5 17,9.2 17,8.75V8H17.75C18.2,8 18.5,7.7 18.5,7.25C18.5,6.8 18.2,6.5 17.75,6.5H17V5.75C17,5.3 16.7,5 16.25,5C15.8,5 15.5,5.3 15.5,5.75V6.5H14.75C14.3,6.5 14,6.8 14,7.25C14,7.7 14.3,8 14.75,8Z" id="path_2" />
	<path fill="#ffffffff" d="M22.25,11H21.5V10.25C21.5,9.8 21.2,9.5 20.75,9.5C20.3,9.5 20,9.8 20,10.25V11H19.25C18.8,11 18.5,11.3 18.5,11.75C18.5,12.2 18.8,12.5 19.25,12.5H20V13.25C20,13.7 20.3,14 20.75,14C21.2,14 21.5,13.7 21.5,13.25V12.5H22.25C22.7,12.5 23,12.2 23,11.75C23,11.3 22.7,11 22.25,11Z" id="path_3" />
</svg>
