<svg id="vector" xmlns="http://www.w3.org/2000/svg" width="120.0d" height="120.0d" viewBox="0 0 120.0 120.0"><defs><clipPath id="clip_path_0"><path d="M0,0h120v120h-120z"/></clipPath></defs><g id="g_0"><g clip-path="url(#clip_path_0)"><path fill="#ffd3e9ff" d="M19.958,103.401H3.042C1.905,103.401 1,102.503 1,101.375V84.589C1,83.461 1.905,82.563 3.042,82.563H19.958C21.095,82.563 22,83.461 22,84.589V101.375C22,102.48 21.072,103.401 19.958,103.401Z"/><path fill="#ff94c4f4" d="M11.488,100.039C15.423,100.039 18.612,96.874 18.612,92.97C18.612,89.066 15.423,85.901 11.488,85.901C7.554,85.901 4.365,89.066 4.365,92.97C4.365,96.874 7.554,100.039 11.488,100.039Z"/><path fill="#ff3375bb" d="M13.896,94.125C14.506,94.125 15,93.635 15,93.03C15,92.425 14.506,91.935 13.896,91.935C13.287,91.935 12.793,92.425 12.793,93.03C12.793,93.635 13.287,94.125 13.896,94.125Z"/><path fill="#ff3375bb" d="M9.462,94.125C10.071,94.125 10.566,93.635 10.566,93.03C10.566,92.425 10.071,91.935 9.462,91.935C8.852,91.935 8.358,92.425 8.358,93.03C8.358,93.635 8.852,94.125 9.462,94.125Z"/></g><path fill="#00000000" d="M29.976,91.386C29.147,79.617 28.91,83.249 29.976,62.262" stroke="#ff3375bb" stroke-width="3.88861" stroke-linecap="round" stroke-linejoin="round"/><path fill="#00000000" d="M102.317,70.304C102.317,70.304 110.843,90.846 86.098,73.89" stroke="#ff3375bb" stroke-width="3.63325" stroke-linecap="round" stroke-linejoin="round"/><path fill="#ff94c4f4" d="M61.936,103.272C47.227,103.272 26.843,83.484 26.843,56.386C26.843,33.615 33.508,26.783 39.254,26.783C45,26.783 44.77,36.347 52.584,36.119C60.399,35.892 58.56,26.555 67.064,26.555C75.797,26.555 74.188,37.258 79.015,37.258C87.519,37.258 87.289,28.491 95.103,28.491C104.986,28.491 104.986,47.505 104.986,55.248C104.986,80.752 83.311,103.272 61.936,103.272Z"/><path fill="#ff94c4f4" d="M116.569,47.444C115.004,47.444 113.328,48.715 113.328,50.285C113.328,51.855 114.597,53.126 116.164,53.126C117.731,53.126 119,52.26 119,50.69C119,49.123 118.136,47.444 116.569,47.444ZM116.164,52.093C115.166,52.093 114.359,51.284 114.359,50.285C114.359,49.285 115.424,48.477 116.422,48.477C117.419,48.477 117.969,49.543 117.969,50.543C117.969,51.542 117.162,52.093 116.164,52.093Z" stroke-opacity="0.5" fill-opacity="0.5"/><path fill="#ff94c4f4" d="M54.977,15.763C53.412,15.763 51.736,17.034 51.736,18.604C51.736,20.174 53.005,21.445 54.572,21.445C56.14,21.445 57.408,20.58 57.408,19.009C57.408,17.442 56.544,15.763 54.977,15.763ZM54.572,20.412C53.575,20.412 52.768,19.603 52.768,18.604C52.768,17.604 53.832,16.796 54.83,16.796C55.828,16.796 56.377,17.863 56.377,18.862C56.377,19.862 55.57,20.412 54.572,20.412Z" stroke-opacity="0.5" fill-opacity="0.5"/><path fill="#00000000" d="M90.966,70.808C88.13,72.699 82.028,76.953 82.028,84.994" stroke="#ff3375bb" stroke-width="2.17416" stroke-linecap="round" stroke-linejoin="round"/><path fill="#ff3a4d57" d="M78.677,88.987L78.677,85.385C78.677,84.94 79.123,84.576 79.668,84.576L84.303,84.576C84.848,84.576 85.294,84.94 85.294,85.385L85.294,88.987L78.677,88.987Z"/><path fill="#ff3a4d57" d="M86.151,93.925L83.716,93.925L83.716,102.322C83.716,103.017 84.263,103.573 84.947,103.573C85.631,103.573 86.179,103.017 86.179,102.322L86.179,93.925L86.151,93.925Z"/><path fill="#ff3a4d57" d="M80.735,93.921L78.299,93.921L78.299,102.318C78.299,103.014 78.846,103.57 79.53,103.57C80.215,103.57 80.762,103.014 80.762,102.318L80.762,93.921L80.735,93.921Z"/><path fill="#ff3a4d57" d="M75.368,97.81L75.368,91.214C75.368,89.989 76.371,88.987 77.597,88.987L86.373,88.987C87.599,88.987 88.602,89.989 88.602,91.214L88.602,97.81L75.368,97.81Z"/><path fill="#00000000" d="M99.071,80.484C96.391,80.025 92.284,78.13 86.098,73.891" stroke="#ff3375bb" stroke-width="3.63325" stroke-linecap="round" stroke-linejoin="round"/><path fill="#00000000" d="M40.552,47.972C42.308,45.968 47.143,42.492 52.428,44.617" stroke="#ff3375bb" stroke-width="2.59241" stroke-linecap="round" stroke-linejoin="round"/><path fill="#00000000" d="M80.878,44.794C83.54,44.505 89.471,45.207 91.896,50.322" stroke="#ff3375bb" stroke-width="2.59241" stroke-linecap="round" stroke-linejoin="round"/><path fill="#ff3375bb" d="M83.329,58.68C81.488,58.68 80.472,57.201 80.472,55.378C80.472,53.555 81.964,52.076 83.805,52.076C85.645,52.076 87.137,54.026 87.137,55.85C87.137,57.674 85.169,58.68 83.329,58.68Z"/><path fill="#ff3375bb" d="M50.526,55.994C50.526,57.755 49.085,58.726 47.308,58.726C45.531,58.726 44.091,57.299 44.091,55.538C44.091,53.778 45.991,52.35 47.768,52.35C49.545,52.35 50.526,54.233 50.526,55.994Z"/><path fill="#ff94c4f4" d="M85.856,116.829C85.856,118.56 73.86,119.963 61.338,119.963C48.817,119.963 40.775,118.298 40.775,116.567C40.775,114.836 52.771,113.172 65.293,113.172C77.814,113.172 85.856,115.097 85.856,116.829Z" stroke-opacity="0.5" fill-opacity="0.5"/><path fill="#ff94c4f4" d="M110.284,90.685C110.284,91.695 109.458,92.252 108.438,92.252C107.419,92.252 106.593,91.434 106.593,90.424C106.593,89.414 107.683,88.595 108.702,88.595C109.721,88.595 110.284,89.675 110.284,90.685Z" stroke-opacity="0.5" fill-opacity="0.5"/><path fill="#ff94c4f4" d="M107.541,19.16C107.541,20.17 106.715,20.727 105.696,20.727C104.676,20.727 103.85,19.909 103.85,18.899C103.85,17.889 104.94,17.07 105.959,17.07C106.978,17.07 107.541,18.15 107.541,19.16Z" stroke-opacity="0.5" fill-opacity="0.5"/><path fill="#ff94c4f4" d="M16.397,60.609C16.397,61.619 15.571,62.177 14.552,62.177C13.532,62.177 12.706,61.358 12.706,60.348C12.706,59.338 13.796,58.52 14.815,58.52C15.834,58.52 16.397,59.6 16.397,60.609Z" stroke-opacity="0.5" fill-opacity="0.5"/><path fill="#ff94c4f4" d="M33.134,14.116C33.134,15.631 31.998,16.467 30.596,16.467C29.195,16.467 28.059,15.239 28.059,13.725C28.059,12.21 29.557,10.982 30.959,10.982C32.36,10.982 33.134,12.602 33.134,14.116Z" stroke-opacity="0.5" fill-opacity="0.5"/><path fill="#00000000" d="M17.411,32.25L17.916,40.091" stroke="#ff94c4f4" stroke-width="1.2962" stroke-linecap="round"/><path fill="#00000000" d="M20.426,33.914L15.495,38.683" stroke="#ff94c4f4" stroke-width="1.2962" stroke-linecap="round"/><path fill="#00000000" d="M21.406,37.472L13.922,34.869" stroke="#ff94c4f4" stroke-width="1.2962" stroke-linecap="round"/><path fill="#00000000" d="M82.639,13.036L83.144,20.878" stroke="#ff94c4f4" stroke-width="1.2962" stroke-linecap="round"/><path fill="#00000000" d="M85.654,14.7L80.722,19.469" stroke="#ff94c4f4" stroke-width="1.2962" stroke-linecap="round"/><path fill="#00000000" d="M86.633,18.258L79.15,15.656" stroke="#ff94c4f4" stroke-width="1.2962" stroke-linecap="round"/><path fill="#ff3375bb" d="M63.687,61.873L68.664,61.873A1.81,1.81 0,0 1,70.474 63.683L70.474,63.683A1.81,1.81 0,0 1,68.664 65.493L63.687,65.493A1.81,1.81 0,0 1,61.876 63.683L61.876,63.683A1.81,1.81 0,0 1,63.687 61.873z"/></g></svg>