<svg width="24" height="24" viewBox="0 0 24 24" fill="none" xmlns="http://www.w3.org/2000/svg">
<path fill-rule="evenodd" clip-rule="evenodd" d="M20 13H4V11H20V13Z" fill="white"/>
<path fill-rule="evenodd" clip-rule="evenodd" d="M7 5C5.89548 5 5 5.89548 5 7V8.5714H3V7C3 4.79092 4.79092 3 7 3H8.5714V5H7Z" fill="white"/>
<path fill-rule="evenodd" clip-rule="evenodd" d="M17.0003 5H15.4288V3H17.0003C19.2094 3 21.0003 4.79092 21.0003 7V8.5714H19.0003V7C19.0003 5.89548 18.1048 5 17.0003 5Z" fill="white"/>
<path fill-rule="evenodd" clip-rule="evenodd" d="M19.0003 17V15.4286H21.0003V17C21.0003 19.2091 19.2094 21 17.0003 21H15.4288V19H17.0003C18.1048 19 19.0003 18.1045 19.0003 17Z" fill="white"/>
<path fill-rule="evenodd" clip-rule="evenodd" d="M5 15.4286V17C5 18.1045 5.89548 19 7 19H8.5714V21H7C4.79092 21 3 19.2091 3 17V15.4286H5Z" fill="white"/>
</svg>
