<svg id="vector" xmlns="http://www.w3.org/2000/svg" width="146.0d" height="36.0d" viewBox="0 0 146.0 36.0"><path fill="#ffffffff" d="M12.375,0.3L23.625,0.3A12.075,12.075 0,0 1,35.7 12.375L35.7,23.625A12.075,12.075 0,0 1,23.625 35.7L12.375,35.7A12.075,12.075 0,0 1,0.3 23.625L0.3,12.375A12.075,12.075 0,0 1,12.375 0.3z" stroke="#ffccd7e1" stroke-width="0.6" id="path_0"/><path fill="#00000000" d="M18.301,8.4C21.823,11.134 25.861,10.965 27.015,10.965C26.762,26.512 24.839,24.441 18.301,28.8C11.763,24.441 9.852,26.512 9.6,10.965C10.742,10.965 14.78,11.134 18.301,8.4Z" stroke="#ff3375bb" stroke-width="2.76" stroke-linecap="round" stroke-linejoin="round" id="path_1"/><path fill="#ff3375bb" d="M47.847,14.415H44.068V12.188H54.361V14.415H50.581V24H47.847V14.415ZM57.457,16.119C57.772,15.681 58.194,15.349 58.722,15.124C59.263,14.899 59.881,14.786 60.579,14.786V17.216C60.286,17.194 60.089,17.183 59.988,17.183C59.234,17.183 58.644,17.396 58.216,17.824C57.789,18.24 57.575,18.87 57.575,19.714V24H54.943V14.921H57.457V16.119ZM70.85,14.921V24H68.353V22.92C68.004,23.314 67.588,23.618 67.104,23.831C66.62,24.034 66.097,24.135 65.534,24.135C64.342,24.135 63.397,23.792 62.699,23.106C62.002,22.419 61.653,21.401 61.653,20.051V14.921H64.286V19.663C64.286,21.126 64.899,21.857 66.125,21.857C66.755,21.857 67.261,21.654 67.644,21.249C68.026,20.833 68.217,20.22 68.217,19.41V14.921H70.85ZM75.837,24.135C75.083,24.135 74.346,24.045 73.626,23.865C72.906,23.674 72.333,23.438 71.905,23.156L72.783,21.266C73.188,21.525 73.677,21.739 74.251,21.907C74.824,22.065 75.387,22.144 75.938,22.144C77.052,22.144 77.609,21.868 77.609,21.317C77.609,21.058 77.457,20.872 77.153,20.76C76.849,20.647 76.383,20.552 75.753,20.473C75.01,20.361 74.397,20.231 73.913,20.085C73.429,19.939 73.008,19.68 72.648,19.309C72.299,18.938 72.124,18.409 72.124,17.722C72.124,17.149 72.288,16.642 72.614,16.204C72.951,15.754 73.435,15.405 74.065,15.158C74.706,14.91 75.46,14.786 76.326,14.786C76.968,14.786 77.603,14.859 78.233,15.006C78.874,15.141 79.403,15.332 79.819,15.579L78.942,17.452C78.143,17.003 77.271,16.778 76.326,16.778C75.764,16.778 75.342,16.856 75.061,17.014C74.779,17.171 74.639,17.374 74.639,17.621C74.639,17.903 74.791,18.099 75.094,18.212C75.398,18.324 75.882,18.431 76.546,18.532C77.288,18.656 77.896,18.791 78.368,18.938C78.841,19.073 79.251,19.326 79.6,19.697C79.949,20.068 80.123,20.586 80.123,21.249C80.123,21.812 79.954,22.313 79.617,22.751C79.279,23.19 78.784,23.533 78.132,23.781C77.491,24.017 76.726,24.135 75.837,24.135ZM87.097,23.561C86.838,23.753 86.517,23.899 86.135,24C85.764,24.09 85.37,24.135 84.954,24.135C83.874,24.135 83.035,23.859 82.439,23.308C81.854,22.757 81.562,21.947 81.562,20.878V17.149H80.161V15.124H81.562V12.913H84.194V15.124H86.455V17.149H84.194V20.844C84.194,21.227 84.29,21.525 84.481,21.739C84.684,21.941 84.965,22.042 85.325,22.042C85.741,22.042 86.095,21.93 86.388,21.705L87.097,23.561ZM110.38,12.188L106.516,24H103.58L100.981,16.001L98.298,24H95.379L91.497,12.188H94.332L96.999,20.49L99.783,12.188H102.314L105.014,20.558L107.765,12.188H110.38ZM114.201,14.786C115.607,14.786 116.687,15.124 117.441,15.799C118.195,16.462 118.572,17.469 118.572,18.819V24H116.108V22.869C115.613,23.713 114.69,24.135 113.34,24.135C112.643,24.135 112.035,24.017 111.518,23.781C111.012,23.544 110.623,23.218 110.353,22.802C110.083,22.386 109.948,21.913 109.948,21.384C109.948,20.541 110.263,19.877 110.893,19.393C111.535,18.909 112.519,18.667 113.847,18.667H115.939C115.939,18.094 115.765,17.655 115.416,17.351C115.067,17.036 114.544,16.879 113.847,16.879C113.363,16.879 112.885,16.958 112.412,17.115C111.951,17.261 111.557,17.464 111.231,17.722L110.286,15.883C110.781,15.534 111.372,15.264 112.058,15.073C112.755,14.882 113.47,14.786 114.201,14.786ZM113.998,22.363C114.448,22.363 114.848,22.262 115.197,22.059C115.545,21.846 115.793,21.536 115.939,21.131V20.203H114.133C113.053,20.203 112.513,20.558 112.513,21.266C112.513,21.604 112.643,21.874 112.902,22.076C113.172,22.267 113.537,22.363 113.998,22.363ZM120.448,11.479H123.08V24H120.448V11.479ZM125.017,11.479H127.65V24H125.017V11.479ZM138.48,19.494C138.48,19.528 138.463,19.764 138.429,20.203H131.561C131.685,20.766 131.977,21.21 132.439,21.536C132.9,21.862 133.474,22.026 134.16,22.026C134.632,22.026 135.049,21.958 135.409,21.823C135.78,21.677 136.123,21.452 136.438,21.148L137.839,22.667C136.984,23.646 135.735,24.135 134.092,24.135C133.069,24.135 132.163,23.938 131.375,23.544C130.588,23.139 129.98,22.583 129.553,21.874C129.125,21.165 128.912,20.361 128.912,19.461C128.912,18.572 129.12,17.773 129.536,17.064C129.964,16.344 130.543,15.788 131.274,15.394C132.017,14.989 132.844,14.786 133.755,14.786C134.644,14.786 135.448,14.977 136.168,15.36C136.888,15.743 137.45,16.294 137.855,17.014C138.272,17.722 138.48,18.549 138.48,19.494ZM133.772,16.778C133.175,16.778 132.675,16.946 132.27,17.284C131.865,17.621 131.617,18.083 131.527,18.667H135.999C135.909,18.094 135.662,17.638 135.257,17.301C134.852,16.952 134.357,16.778 133.772,16.778ZM145.582,23.561C145.323,23.753 145.002,23.899 144.62,24C144.249,24.09 143.855,24.135 143.439,24.135C142.359,24.135 141.521,23.859 140.924,23.308C140.339,22.757 140.047,21.947 140.047,20.878V17.149H138.646V15.124H140.047V12.913H142.679V15.124H144.941V17.149H142.679V20.844C142.679,21.227 142.775,21.525 142.966,21.739C143.169,21.941 143.45,22.042 143.81,22.042C144.226,22.042 144.581,21.93 144.873,21.705L145.582,23.561Z" id="path_2"/></svg>