<svg id="vector" xmlns="http://www.w3.org/2000/svg" width="16.0d" height="16.0d" viewBox="0 0 16.0 16.0"><path fill="#ff313848" d="M15.3333,2.6667H2.6667H2C1.6327,2.6667 1.3333,2.3673 1.3333,2C1.3333,1.6327 1.6327,1.3333 2,1.3333H12V2H13.3333V0.6667C13.3333,0.2987 13.0347,0 12.6667,0H2C0.8953,0 0,0.8953 0,2V13.3333C0,14.806 1.194,16 2.6667,16H15.3333C15.7013,16 16,15.7013 16,15.3333V3.3333C16,2.9653 15.7013,2.6667 15.3333,2.6667ZM12,10.6667C11.2633,10.6667 10.6667,10.07 10.6667,9.3333C10.6667,8.5967 11.2633,8 12,8C12.7367,8 13.3333,8.5967 13.3333,9.3333C13.3333,10.07 12.7367,10.6667 12,10.6667Z" id="path_0"/></svg>