<svg width="18" height="18" viewBox="0 0 18 18" fill="none" xmlns="http://www.w3.org/2000/svg">
<path d="M17.3164 10.314L15.9136 10.5479C15.5938 10.6012 15.3402 10.8398 15.2349 11.1463C15.1471 11.402 15.0441 11.6504 14.9268 11.8907C14.7847 12.1821 14.7951 12.5303 14.9834 12.7942L15.8097 13.9525C16.0418 14.2779 16.0049 14.7235 15.7222 15.0062L15.0053 15.7231C14.7225 16.0059 14.2766 16.0428 13.9512 15.8103L12.7943 14.9839C12.5304 14.7953 12.1819 14.7848 11.8904 14.927C11.6502 15.0442 11.4019 15.1471 11.1463 15.2349C10.8398 15.3402 10.6012 15.5938 10.5479 15.9136L10.314 17.3164C10.2482 17.7109 9.90687 18 9.50695 18H8.49305C8.09313 18 7.75178 17.7109 7.686 17.3164L7.45208 15.9136C7.39882 15.5938 7.16024 15.3402 6.85374 15.2349C6.59806 15.1471 6.34966 15.0442 6.10936 14.9269C5.81801 14.7847 5.46971 14.7952 5.20576 14.9836L4.04877 15.8095C3.7233 16.0418 3.27764 16.0048 2.99487 15.722L2.2779 15.0051C1.99522 14.7224 1.95824 14.2767 2.19052 13.9512L3.01639 12.7942C3.20482 12.5303 3.21529 12.182 3.07309 11.8906C2.95585 11.6503 2.85292 11.4019 2.76513 11.1463C2.65983 10.8398 2.40619 10.6012 2.08645 10.5479L0.683591 10.314C0.289145 10.2482 0 9.90687 0 9.50695V8.49305C0 8.09313 0.289145 7.75178 0.683591 7.686L2.08645 7.45208C2.40619 7.39882 2.65983 7.16024 2.76513 6.85374C2.85292 6.59806 2.95585 6.34966 3.07309 6.10936C3.21529 5.81801 3.20482 5.46971 3.01639 5.20576L2.19052 4.04877C1.95824 3.7233 1.99522 3.27764 2.2779 2.99487L2.99487 2.2779C3.27764 1.99522 3.7233 1.95824 4.04877 2.19052L5.20576 3.01639C5.46971 3.20482 5.81801 3.21529 6.10936 3.07309C6.34966 2.95585 6.59806 2.85292 6.85374 2.76513C7.16024 2.65983 7.39882 2.40619 7.45208 2.08645L7.686 0.683591C7.75178 0.289145 8.09313 0 8.49305 0H9.50695C9.90687 0 10.2482 0.289145 10.314 0.683591L10.5479 2.08645C10.6012 2.40619 10.8398 2.65983 11.1463 2.76513C11.4019 2.85292 11.6503 2.95585 11.8906 3.07309C12.182 3.21529 12.5303 3.20482 12.7942 3.01639L13.9515 2.19044C14.2768 1.95815 14.7224 1.99505 15.0051 2.27757L15.7228 2.99471C16.0058 3.27747 16.0427 3.72346 15.8101 4.04902L14.9839 5.20568C14.7953 5.46963 14.7848 5.81809 14.927 6.10961C15.0442 6.34983 15.1471 6.59815 15.2349 6.85374C15.3402 7.16024 15.5938 7.39882 15.9136 7.45208L17.3164 7.686C17.7109 7.75178 18 8.09313 18 8.49305V9.50695C18 9.90687 17.7109 10.2482 17.3164 10.314ZM9 12.2727C10.8075 12.2727 12.2727 10.8075 12.2727 9C12.2727 7.19252 10.8075 5.72727 9 5.72727C7.19252 5.72727 5.72727 7.19252 5.72727 9C5.72727 10.8075 7.19252 12.2727 9 12.2727Z" fill="white"/>
</svg>
