<svg id="vector" xmlns="http://www.w3.org/2000/svg" width="120.0d" height="120.0d" viewBox="0 0 120.0 120.0"><defs><clipPath id="clip_path_0"><path d="M0,0h120v120h-120z"/></clipPath></defs><g id="g_0"><path fill="#ff94c4f4" d="M44.241,17C42.676,17 41,18.271 41,19.841C41,21.411 42.268,22.682 43.836,22.682C45.403,22.682 46.672,21.817 46.672,20.246C46.672,18.679 45.808,17 44.241,17ZM43.836,21.649C42.838,21.649 42.031,20.84 42.031,19.841C42.031,18.841 43.096,18.033 44.094,18.033C45.091,18.033 45.64,19.1 45.64,20.099C45.64,21.099 44.834,21.649 43.836,21.649Z" stroke-opacity="0.5" fill-opacity="0.5" clip-path="url(#clip_path_0)"/><path fill="#ff94c4f4" d="M10.145,24.673C8.95,24.673 7.672,25.642 7.672,26.841C7.672,28.039 8.64,29.009 9.836,29.009C11.032,29.009 12,28.349 12,27.15C12,25.954 11.341,24.673 10.145,24.673ZM9.836,28.221C9.074,28.221 8.459,27.604 8.459,26.841C8.459,26.078 9.271,25.461 10.033,25.461C10.794,25.461 11.213,26.275 11.213,27.038C11.213,27.801 10.597,28.221 9.836,28.221Z" stroke-opacity="0.5" fill-opacity="0.5"/><path fill="#ff94c4f4" d="M111.241,37C109.676,37 108,38.271 108,39.841C108,41.411 109.268,42.682 110.836,42.682C112.403,42.682 113.672,41.817 113.672,40.246C113.672,38.679 112.808,37 111.241,37ZM110.836,41.649C109.838,41.649 109.031,40.84 109.031,39.841C109.031,38.841 110.096,38.033 111.094,38.033C112.091,38.033 112.64,39.1 112.64,40.099C112.64,41.099 111.834,41.649 110.836,41.649Z" stroke-opacity="0.5" fill-opacity="0.5"/><path fill="#ff94c4f4" d="M63.303,9.397C63.303,10.555 62.34,11.194 61.151,11.194C59.963,11.194 59,10.255 59,9.097C59,7.939 60.271,7 61.459,7C62.647,7 63.303,8.238 63.303,9.397Z" stroke-opacity="0.5" fill-opacity="0.5"/><path fill="#ff94c4f4" d="M24.916,12.595C24.916,14.332 23.592,15.291 21.958,15.291C20.324,15.291 19,13.883 19,12.146C19,10.408 20.747,9 22.381,9C24.014,9 24.916,10.858 24.916,12.595Z" stroke-opacity="0.5" fill-opacity="0.5"/><path fill="#00000000" d="M79.489,16L79.994,23.842" stroke="#ff94c4f4" stroke-width="1.2962" stroke-linecap="round"/><path fill="#00000000" d="M82.504,17.664L77.573,22.433" stroke="#ff94c4f4" stroke-width="1.2962" stroke-linecap="round"/><path fill="#00000000" d="M83.483,21.222L76,18.62" stroke="#ff94c4f4" stroke-width="1.2962" stroke-linecap="round"/><g><path fill="#ff4a90e2" d="M31.321,64.771C31.321,64.771 24.001,70.134 16.121,68.922Z"/><path fill="#00000000" d="M31.321,64.771C31.321,64.771 24.001,70.134 16.121,68.922" stroke="#ff3375bb" stroke-width="3.74336" stroke-linecap="round" stroke-linejoin="round"/><path fill="#ff94c4f4" d="M12.139,26.21L5.428,22.143L1.136,28.013L12.47,65.52L20.039,63.506L12.139,26.21Z"/><path fill="#ff60a8ef" d="M18.202,65.07C18.268,65.714 18.376,66.347 18.497,66.978C18.615,67.608 18.757,68.233 18.906,68.857C19.056,69.48 19.223,70.099 19.409,70.713C19.595,71.327 19.8,71.937 20.051,72.534C20.457,73.499 20.004,74.61 19.04,75.016C18.076,75.421 16.965,74.969 16.559,74.004C16.482,73.821 16.435,73.623 16.418,73.435C16.361,72.788 16.257,72.154 16.135,71.524C16.013,70.894 15.872,70.269 15.714,69.647C15.555,69.027 15.388,68.408 15.198,67.795C15.01,67.181 14.81,66.57 14.568,65.97C14.178,65.002 14.647,63.901 15.615,63.511C16.584,63.121 17.685,63.59 18.075,64.558C18.142,64.723 18.184,64.901 18.202,65.07Z"/><path fill="#ff3375bb" d="M9.709,64.334C10.768,64.159 11.815,63.938 12.858,63.704C13.902,63.472 14.939,63.215 15.974,62.949C17.01,62.684 18.039,62.397 19.064,62.091C20.087,61.782 21.106,61.455 22.11,61.07C23.081,60.698 24.17,61.184 24.542,62.155C24.914,63.126 24.428,64.214 23.457,64.587C23.33,64.635 23.191,64.67 23.063,64.69C22,64.85 20.952,65.067 19.909,65.301C18.866,65.539 17.829,65.796 16.797,66.075C15.765,66.352 14.736,66.64 13.713,66.952C12.69,67.262 11.67,67.585 10.662,67.954C9.687,68.31 8.607,67.809 8.251,66.834C7.894,65.859 8.396,64.779 9.371,64.423C9.479,64.383 9.599,64.353 9.709,64.334Z"/><path fill="#ff4a90e2" d="M16.059,69.19C16.059,69.19 15.928,69.131 16.121,68.923Z"/><path fill="#00000000" d="M16.059,69.19C16.059,69.19 15.928,69.131 16.121,68.923" stroke="#ff3375bb" stroke-width="3.74336" stroke-linecap="round" stroke-linejoin="round"/><path fill="#ff94c4f4" d="M62.223,103.433C48.299,103.433 29.004,84.528 29.004,58.638C29.004,36.882 35.313,30.355 40.752,30.355C46.191,30.355 45.973,39.493 53.37,39.275C60.768,39.058 59.027,30.138 67.077,30.138C75.344,30.138 73.821,40.363 78.39,40.363C86.439,40.363 86.222,31.987 93.619,31.987C102.974,31.987 102.974,50.153 102.974,57.55C102.974,81.917 82.456,103.433 62.223,103.433Z"/><path fill="#ff73a7da" d="M113.148,80.562C112.057,84.956 110.831,87.538 109.393,89.3C107.932,91.133 106.216,92.145 103.698,93.356C101.395,94.468 98.561,95.626 95.099,97.433C92.016,95.036 89.436,93.389 87.372,91.884C85.115,90.242 83.61,88.941 82.505,86.877C81.408,84.887 80.666,82.127 80.382,77.607C80.114,73.381 80.253,67.829 80.78,60.183C84.477,60.458 91.707,60.524 98.791,56.491C105.046,61.732 112.181,62.958 115.878,63.349C115.029,70.965 114.171,76.451 113.148,80.562Z" stroke="#ff3375bb" stroke-width="3.74336" stroke-linecap="round" stroke-linejoin="round"/><path fill="#ff3375bb" d="M84.575,55.157C82.833,55.157 81.871,53.745 81.871,52.003C81.871,50.26 83.283,48.848 85.025,48.848C86.768,48.848 88.18,50.711 88.18,52.453C88.18,54.196 86.317,55.157 84.575,55.157Z"/><path fill="#ff3375bb" d="M49.454,50.806C49.454,52.489 48.091,53.417 46.409,53.417C44.726,53.417 43.363,52.054 43.363,50.371C43.363,48.689 45.162,47.325 46.844,47.325C48.526,47.325 49.454,49.124 49.454,50.806Z"/><path fill="#00000000" d="M72.641,52.82C72.641,52.82 72.882,56.803 73.604,58.581" stroke="#ff3375bb" stroke-width="3.74336" stroke-linecap="round"/><path fill="#00000000" d="M57.847,58.22C57.847,58.22 58.569,54.784 58.672,52.547" stroke="#ff3375bb" stroke-width="3.74336" stroke-linecap="round"/><path fill="#ff3375bb" d="M59.144,53.722C59.385,53.778 59.66,53.824 59.923,53.869C60.189,53.916 60.456,53.956 60.725,53.992C61.262,54.065 61.801,54.122 62.342,54.169C63.423,54.262 64.508,54.299 65.589,54.322C66.672,54.342 67.749,54.316 68.821,54.259C69.892,54.207 70.95,54.093 71.99,53.936L72.012,53.933C73.035,53.778 73.991,54.483 74.145,55.506C74.3,56.53 73.596,57.485 72.572,57.64C72.512,57.649 72.449,57.655 72.389,57.658C71.224,57.719 70.071,57.757 68.926,57.768C68.354,57.77 67.783,57.768 67.214,57.756C66.645,57.751 66.077,57.737 65.51,57.718C64.377,57.686 63.247,57.625 62.117,57.573L60.42,57.497L58.693,57.438L58.652,57.436C57.613,57.401 56.799,56.53 56.835,55.491C56.87,54.451 57.741,53.638 58.78,53.673C58.901,53.678 59.029,53.696 59.144,53.722Z"/><path fill="#ff3375bb" d="M103.787,28.704L110.506,25.455C111.652,24.901 113.031,25.381 113.585,26.528C114.139,27.674 113.66,29.053 112.513,29.607C112.365,29.679 112.201,29.735 112.048,29.773L104.791,31.516C103.985,31.71 103.174,31.213 102.981,30.406C102.812,29.707 103.165,29.005 103.787,28.704Z"/><path fill="#ff3375bb" d="M81.077,44.177L87.796,40.928C88.942,40.374 90.321,40.854 90.875,42C91.429,43.147 90.95,44.526 89.803,45.08C89.655,45.151 89.491,45.208 89.338,45.246L82.081,46.989C81.275,47.182 80.464,46.686 80.271,45.879C80.102,45.18 80.455,44.477 81.077,44.177Z"/><path fill="#ff3375bb" d="M49.882,45.741L42.626,43.998C41.388,43.701 40.625,42.456 40.923,41.218C41.22,39.98 42.465,39.217 43.703,39.514C43.862,39.553 44.025,39.613 44.168,39.681L50.887,42.929C51.633,43.29 51.946,44.188 51.585,44.935C51.272,45.582 50.554,45.902 49.882,45.741Z"/><path fill="#ff3375bb" d="M98.855,24.839L102.367,16.976C102.886,15.815 104.247,15.295 105.408,15.813C106.569,16.332 107.09,17.693 106.572,18.854C106.514,18.983 106.439,19.114 106.362,19.226L101.457,26.305C100.985,26.986 100.051,27.155 99.37,26.683C98.768,26.265 98.566,25.485 98.855,24.839Z"/><path fill="#ff3375bb" d="M92.174,24.324L91.375,16.837C91.24,15.571 92.157,14.435 93.423,14.3C94.689,14.165 95.825,15.082 95.96,16.347C95.977,16.509 95.976,16.681 95.96,16.837L95.161,24.324C95.073,25.148 94.333,25.746 93.508,25.657C92.792,25.581 92.247,25.012 92.174,24.324Z"/><path fill="#ff94c4f4" d="M84.933,115.412C84.933,117.066 73.577,118.407 61.724,118.407C49.871,118.407 42.258,116.816 42.258,115.162C42.258,113.509 53.614,111.918 65.467,111.918C77.32,111.918 84.933,113.758 84.933,115.412Z" stroke-opacity="0.5" fill-opacity="0.5"/><path fill="#00000000" d="M20.143,35.579L20.621,43.071" stroke="#ffd4e8fb" stroke-width="1.24779" stroke-linecap="round"/><path fill="#00000000" d="M22.997,37.17L18.329,41.726" stroke="#ffd4e8fb" stroke-width="1.24779" stroke-linecap="round"/><path fill="#00000000" d="M23.924,40.568L16.84,38.082" stroke="#ffd4e8fb" stroke-width="1.24779" stroke-linecap="round"/></g></g></svg>